<?xml version="1.0" standalone="no"?>
<!DOCTYPE svg PUBLIC "-//W3C//DTD SVG 20010904//EN"
 "http://www.w3.org/TR/2001/REC-SVG-20010904/DTD/svg10.dtd">
<svg version="1.0" xmlns="http://www.w3.org/2000/svg"
 width="393.000000pt" height="157.000000pt" viewBox="0 0 393.000000 157.000000"
 preserveAspectRatio="xMidYMid meet">

<g transform="translate(0.000000,157.000000) scale(0.100000,-0.100000)"
fill="#000000" stroke="none">
<path d="M3172 880 c4 -109 -2 -133 -24 -85 -17 37 -53 56 -107 57 -86 0 -132
-54 -132 -155 0 -104 44 -157 131 -157 51 0 93 21 108 54 18 41 35 32 27 -14
l-7 -40 46 0 46 0 0 225 0 225 -46 0 -47 0 5 -110z m-36 -118 c16 -10 34 -48
34 -70 0 -11 -9 -31 -21 -46 -17 -21 -29 -26 -65 -26 -55 0 -84 25 -84 75 0
49 29 75 83 75 23 0 47 -4 53 -8z"/>
<path d="M242 758 l3 -213 88 -3 c223 -7 301 50 301 219 0 64 -5 83 -27 121
-40 69 -76 82 -235 86 l-132 4 2 -214z m270 104 c18 -18 23 -36 26 -96 4 -69
2 -75 -24 -105 -26 -29 -36 -33 -101 -38 l-73 -6 0 138 0 137 75 -4 c61 -3 79
-7 97 -26z"/>
<path d="M1910 755 l0 -215 50 0 50 0 0 175 c0 96 4 175 9 175 5 0 23 -79 42
-175 l33 -175 87 0 87 0 33 175 c18 96 36 175 40 175 13 0 20 -73 18 -208 l-1
-137 46 -3 46 -3 0 215 0 216 -95 0 c-52 0 -95 -1 -96 -2 0 -2 -15 -79 -32
-173 -24 -127 -36 -170 -47 -170 -10 0 -22 42 -45 170 l-30 170 -98 3 -97 3 0
-216z"/>
<path d="M820 850 c-77 -13 -120 -69 -120 -158 0 -92 66 -152 168 -152 66 0
118 23 143 64 10 17 19 34 19 39 0 17 -82 6 -110 -14 -46 -35 -130 -13 -130
32 0 18 9 19 115 19 l115 0 0 31 c0 41 -26 94 -56 114 -32 21 -100 32 -144 25z
m91 -80 c10 -6 19 -17 19 -25 0 -12 -15 -15 -70 -15 -54 0 -70 3 -70 15 0 31
79 47 121 25z"/>
<path d="M1210 850 c-77 -13 -120 -69 -120 -158 0 -92 66 -152 168 -152 66 0
118 23 143 64 10 17 19 34 19 39 0 17 -82 6 -110 -14 -46 -35 -130 -13 -130
32 0 18 9 19 115 19 l115 0 0 31 c0 41 -26 94 -56 114 -32 21 -100 32 -144 25z
m91 -80 c10 -6 19 -17 19 -25 0 -12 -15 -15 -70 -15 -54 0 -70 3 -70 15 0 31
79 47 121 25z"/>
<path d="M1695 852 c-44 -7 -77 -26 -91 -53 -22 -43 -37 -37 -29 11 l7 40 -46
0 -46 0 0 -212 0 -213 46 0 46 0 -4 98 c-3 53 -3 97 -1 97 2 0 21 -18 42 -40
34 -35 43 -40 84 -40 82 0 118 29 136 112 26 116 -46 217 -144 200z m35 -102
c12 -12 20 -33 20 -55 0 -50 -29 -75 -84 -75 -36 0 -48 5 -65 26 -12 15 -21
37 -21 49 0 12 9 34 21 49 27 34 98 37 129 6z"/>
<path d="M2640 850 c-69 -12 -104 -46 -120 -115 -16 -72 18 -148 82 -181 35
-18 131 -18 167 1 30 15 81 70 81 86 0 5 -21 9 -46 9 -33 0 -51 -5 -60 -17
-20 -28 -100 -25 -125 6 -10 12 -16 27 -13 32 3 5 57 9 121 9 l116 0 -6 40
c-12 94 -94 148 -197 130z m88 -86 c37 -26 25 -34 -53 -34 -41 0 -75 4 -75 9
0 17 44 41 75 41 17 0 41 -7 53 -16z"/>
<path d="M1069 352 c-25 -21 -30 -71 -9 -96 16 -21 84 -21 100 -1 19 22 4 31
-26 15 -46 -25 -86 27 -49 64 20 20 29 20 49 1 16 -17 36 -20 36 -6 0 14 -41
41 -61 41 -9 0 -27 -8 -40 -18z"/>
<path d="M1284 344 c-20 -19 -24 -31 -19 -52 4 -15 11 -33 17 -39 15 -18 73
-16 92 3 24 24 20 80 -6 98 -32 23 -55 20 -84 -10z m70 -10 c31 -30 13 -74
-30 -74 -35 0 -48 61 -16 79 23 14 28 14 46 -5z"/>
<path d="M1487 363 c-4 -3 -7 -33 -7 -65 0 -45 3 -58 15 -58 11 0 15 12 15 51
0 59 12 57 30 -6 11 -40 16 -45 41 -45 29 0 29 0 29 66 0 47 -3 65 -12 62 -8
-3 -11 -23 -9 -56 3 -69 -14 -67 -34 3 -14 46 -20 55 -39 55 -12 0 -26 -3 -29
-7z"/>
<path d="M1725 345 c-29 -28 -31 -51 -9 -83 10 -14 25 -22 45 -22 24 0 33 6
44 33 l14 32 1 -32 c0 -18 5 -33 10 -33 6 0 10 16 10 35 0 34 -1 35 -40 35
-22 0 -40 -4 -40 -10 0 -5 7 -10 16 -10 9 0 14 -6 12 -12 -3 -7 -16 -13 -29
-13 -20 0 -25 6 -27 32 -4 41 29 64 57 39 22 -20 31 -20 31 -1 0 14 -37 35
-61 35 -5 0 -21 -11 -34 -25z"/>
<path d="M1940 306 c0 -37 4 -66 10 -66 6 0 10 9 10 20 0 16 7 20 30 20 23 0
30 -4 30 -20 0 -11 5 -20 10 -20 6 0 10 11 10 25 0 17 -6 25 -17 25 -17 1 -17
1 0 14 18 14 23 41 9 50 -5 3 -28 8 -50 12 l-42 7 0 -67z m71 19 c0 -5 -12
-11 -26 -13 -18 -2 -25 1 -25 13 0 12 7 15 25 13 14 -2 26 -7 26 -13z"/>
<path d="M2140 306 l0 -66 45 0 c25 0 45 5 45 10 0 6 -16 10 -35 10 -24 0 -35
5 -35 15 0 10 10 15 30 15 17 0 30 5 30 10 0 6 -13 10 -30 10 -42 0 -40 28 3
32 46 4 39 22 -10 26 l-43 3 0 -65z"/>
<path d="M2333 363 c-7 -2 -13 -15 -13 -28 0 -17 10 -27 40 -39 47 -19 52 -36
10 -36 -16 0 -30 5 -30 10 0 6 -7 10 -15 10 -18 0 -19 -12 -3 -28 17 -17 83
-15 98 3 16 20 -1 41 -49 61 -28 12 -32 17 -21 24 10 6 22 4 37 -5 28 -19 33
-19 33 0 0 26 -52 43 -87 28z"/>
<path d="M2533 363 c-7 -2 -13 -15 -13 -28 0 -17 10 -27 40 -39 47 -19 52 -36
10 -36 -16 0 -30 5 -30 10 0 6 -7 10 -15 10 -18 0 -19 -12 -3 -28 17 -17 83
-15 98 3 16 20 -1 41 -49 61 -28 12 -32 17 -21 24 10 6 22 4 37 -5 28 -19 33
-19 33 0 0 26 -52 43 -87 28z"/>
</g>
</svg>
